<svg width="460" height="460" viewBox="0 0 460 460" fill="none" xmlns="http://www.w3.org/2000/svg">
<path d="M425.934 0H171.662C153.54 0 138.798 14.743 138.798 32.864V109.998H168.798V32.864C168.798 31.285 170.083 30 171.662 30H425.934C427.513 30 428.798 31.285 428.798 32.864V287.136C428.798 288.716 427.513 290.001 425.934 290.001H351.205V320.001H425.934C444.055 320.001 458.798 305.258 458.798 287.136V32.864C458.797 14.743 444.055 0 425.934 0Z" fill="#257E06"/>
<path d="M288.339 139.998H34.068C15.946 139.998 1.203 154.741 1.203 172.863V427.135C1.204 445.257 15.946 460 34.068 460H288.34C306.462 460 321.205 445.257 321.205 427.136V172.863C321.206 154.741 306.461 139.998 288.339 139.998ZM288.341 430H34.068C32.488 430 31.203 428.715 31.203 427.136V172.863C31.203 171.283 32.488 169.998 34.068 169.998H288.34C289.92 169.998 291.205 171.283 291.205 172.863V427.136H291.206C291.206 428.715 289.92 430 288.341 430Z" fill="#257E06"/>
</svg>
