<?xml version="1.0" encoding="UTF-8" standalone="no"?>
<svg
   width="16.6537"
   height="17.297001"
   viewBox="0 0 16.6537 17.297001"
   role="img"
   version="1.1"
   id="svg22"
   sodipodi:docname="ubuntu-svg.svg"
   xmlns:inkscape="http://www.inkscape.org/namespaces/inkscape"
   xmlns:sodipodi="http://sodipodi.sourceforge.net/DTD/sodipodi-0.dtd"
   xmlns="http://www.w3.org/2000/svg"
   xmlns:svg="http://www.w3.org/2000/svg">
  <defs
     id="defs26" />
  <sodipodi:namedview
     id="namedview24"
     pagecolor="#ffffff"
     bordercolor="#000000"
     borderopacity="0.25"
     inkscape:showpageshadow="2"
     inkscape:pageopacity="0.0"
     inkscape:pagecheckerboard="0"
     inkscape:deskcolor="#d1d1d1"
     showgrid="false" />
  <title
     id="title18">Ubuntu icon</title>
  <path
     style="fill:#f3f3f3;stroke-width:0.0304569"
     d="M 1.3766034,10.216996 C 1.0249789,10.16547 0.76716355,10.039334 0.49709525,9.786699 0.15069835,9.462661 -0.03354845,8.98878 0.00505565,8.521177 0.03875445,8.112991 0.21174405,7.769038 0.52931895,7.478793 1.0455181,7.007016 1.7873528,6.936458 2.4035311,7.300532 c 0.2783404,0.16446 0.5503677,0.500565 0.6728013,0.831284 0.096179,0.259799 0.096179,0.773351 0,1.03315 -0.259953,0.702188 -0.9925979,1.155652 -1.699729,1.05203 z"
     id="path324"
     inkscape:export-filename="../f9bde76c/ubuntu.png"
     inkscape:export-xdpi="96"
     inkscape:export-ydpi="96" />
  <path
     style="fill:#f3f3f3;stroke-width:0.0304569"
     d="M 5.5370743,14.136945 C 4.9466169,13.688773 4.3659976,13.066756 3.9391047,12.425041 3.6577552,12.002109 3.3092617,11.283802 3.1501476,10.79886 L 3.0163097,10.390953 3.1829808,10.221597 C 3.4850679,9.914645 3.6995009,9.527446 3.7881997,9.128762 3.8645216,8.78571 3.8373398,8.238909 3.7279837,7.917427 3.6165993,7.589981 3.4386874,7.297515 3.2073706,7.061599 L 3.0158969,6.866319 3.1504553,6.4629385 C 3.4990506,5.4179172 4.1015635,4.4604388 4.8960522,3.6889375 5.229284,3.3653473 5.7946231,2.9072742 5.860756,2.9072742 c 0.016014,0 0.2512813,0.3734772 0.5228157,0.8299493 0.2715344,0.4564721 0.5269228,0.8852356 0.5675297,0.9528078 L 7.0249321,4.8128899 6.8106825,4.9793714 C 6.3026747,5.3741158 5.8053633,6.0025975 5.5100872,6.6230103 5.325022,7.011856 5.2276446,7.298193 5.1372077,7.719457 5.0449917,8.14901 5.036519,9.07973 5.1209987,9.500078 c 0.1256034,0.624968 0.3696054,1.219502 0.7120113,1.734884 0.2178961,0.327972 0.7916371,0.933865 1.0504613,1.109328 l 0.1434804,0.09727 -0.1587088,0.267989 c -0.7393663,1.24846 -0.9852981,1.64918 -1.0115007,1.648132 -0.016751,-6.7e-4 -0.1606018,-0.1 -0.3196679,-0.220734 z"
     id="path326" />
  <path
     style="fill:#f3f3f3;stroke-width:0.0304569"
     d="m 14.399889,8.112566 c 0,-0.05181 -0.02715,-0.227442 -0.06034,-0.390294 C 13.989355,6.0038368 12.714779,4.6146565 11.053704,4.1409779 10.599931,4.0115781 10.249045,3.9645954 9.7399909,3.9650752 c -0.654888,6.173e-4 -1.203432,0.1018581 -1.730004,0.3192946 -0.122314,0.050507 -0.229,0.08522 -0.23708,0.07714 -0.02498,-0.024981 -1.0786013,-1.9217268 -1.0786013,-1.941717 0,-0.018838 0.4990603,-0.2370877 0.7400729,-0.3236495 C 7.5047495,2.0708683 7.7327957,2.0031203 7.9411479,1.945591 8.9761849,1.6598003 10.199466,1.6355886 11.274073,1.879624 l 0.300579,0.068259 0.07449,0.2588832 c 0.116549,0.4050593 0.26012,0.6460584 0.573085,0.9619859 0.23256,0.2347616 0.317971,0.2982384 0.563451,0.4187495 0.404599,0.1986257 0.608099,0.2456237 1.050762,0.2426721 0.268962,-0.00179 0.419945,-0.018383 0.57171,-0.062818 l 0.206228,-0.060381 0.214312,0.229483 c 0.761377,0.815276 1.348193,1.8854772 1.623842,2.9614703 0.105356,0.411258 0.201167,0.965395 0.201167,1.163484 v 0.10571 l -0.296955,0.01966 c -0.163325,0.01081 -0.670431,0.01973 -1.126903,0.01982 l -0.82995,1.58e-4 z"
     id="path328" />
  <path
     style="fill:#f3f3f3;stroke-width:0.0304569"
     d="M 13.620258,3.1483945 C 13.150207,3.087422 12.682367,2.7735843 12.443578,2.3590509 12.006752,1.6007285 12.300894,0.59758991 13.079815,0.18923431 c 0.645633,-0.3384782 1.381152,-0.216113 1.880084,0.3127814 0.474538,0.50303559 0.574562,1.16512169 0.271346,1.79612149 -0.100649,0.2094522 -0.457146,0.5729989 -0.665144,0.6782972 -0.29542,0.1495551 -0.638171,0.2118695 -0.945843,0.1719601 z"
     id="path330" />
  <path
     style="fill:#f3f3f3;stroke-width:0.0304569"
     d="m 9.4201939,15.588496 c -0.576146,-0.032 -1.2848,-0.162502 -1.8014819,-0.331754 -0.3503836,-0.114777 -0.9244064,-0.35059 -0.9244064,-0.379753 0,-0.01956 1.0533413,-1.916457 1.0777693,-1.940885 0.0076,-0.0076 0.134868,0.03377 0.282766,0.09198 0.5442,0.214197 1.030548,0.301663 1.68515,0.303059 0.5093671,0.0011 0.8583811,-0.0455 1.3137131,-0.175341 1.652266,-0.471167 2.937412,-1.871502 3.285601,-3.580094 0.03332,-0.163512 0.06058,-0.339684 0.06058,-0.391494 v -0.0942 l 0.92132,2.17e-4 c 0.506726,1.19e-4 1.013833,0.009 1.126904,0.01963 l 0.205584,0.01942 v 0.1059 c 0,0.198263 -0.09577,0.75226 -0.201167,1.163673 -0.278817,1.088359 -0.866023,2.150721 -1.654929,2.994063 l -0.187864,0.200828 -0.116508,-0.04111 c -0.201384,-0.07105 -0.584463,-0.11522 -0.82653,-0.0953 -0.330348,0.02719 -0.551435,0.09045 -0.881023,0.252083 -0.244128,0.119724 -0.33275,0.185285 -0.567154,0.419572 -0.237337,0.237219 -0.298001,0.319691 -0.416365,0.566046 -0.0762,0.158604 -0.155442,0.366808 -0.176087,0.462675 -0.04327,0.200924 -0.03702,0.197354 -0.515521,0.294642 -0.494714,0.100586 -1.2439521,0.160926 -1.6903551,0.136134 z"
     id="path332" />
  <path
     style="fill:#f3f3f3;stroke-width:0.0304569"
     d="m 13.501412,17.264326 c -1.022448,-0.226146 -1.549564,-1.318346 -1.091593,-2.261814 0.107926,-0.222338 0.424865,-0.551582 0.641724,-0.666636 0.661395,-0.350905 1.407798,-0.234962 1.904815,0.295886 0.478984,0.511587 0.578421,1.163887 0.273241,1.79244 -0.111784,0.230231 -0.419488,0.552369 -0.638723,0.668684 -0.354252,0.187949 -0.740222,0.248686 -1.089464,0.17144 z"
     id="path334" />
</svg>
